<?xml version="1.0" standalone="no"?>
<!DOCTYPE svg PUBLIC "-//W3C//DTD SVG 20010904//EN"
 "http://www.w3.org/TR/2001/REC-SVG-20010904/DTD/svg10.dtd">
<svg version="1.0" xmlns="http://www.w3.org/2000/svg"
 width="640.000000pt" height="640.000000pt" viewBox="0 0 640.000000 640.000000"
 preserveAspectRatio="xMidYMid meet">
<metadata>
Created by potrace 1.14, written by Peter Selinger 2001-2017
</metadata>
<g transform="translate(0.000000,640.000000) scale(0.100000,-0.100000)"
fill="#000000" stroke="none">
<path d="M1597 5384 c-1 -1 -22 -5 -47 -8 -62 -8 -79 -12 -125 -29 -59 -21
-547 -266 -569 -286 -48 -42 -64 -125 -37 -188 17 -40 66 -74 384 -274 54 -34
104 -68 112 -75 7 -8 17 -14 21 -14 10 0 87 -52 96 -65 5 -7 8 -7 8 0 0 7 3 7
8 0 9 -12 69 -55 77 -55 3 0 39 -22 80 -50 41 -27 77 -50 80 -50 3 0 11 -5 18
-11 14 -12 53 -37 382 -248 132 -84 244 -157 249 -162 5 -4 -40 -32 -100 -61
-60 -29 -110 -56 -112 -60 -2 -5 -8 -8 -14 -8 -5 0 -178 -83 -383 -185 l-374
-186 -60 26 c-34 14 -87 37 -118 51 -32 15 -76 34 -98 44 -22 10 -56 24 -75
33 -101 44 -115 50 -120 52 -3 0 -27 11 -54 23 -164 74 -206 69 -460 -56 -109
-53 -206 -104 -215 -112 -55 -50 -72 -141 -36 -197 20 -31 96 -123 135 -164
14 -15 39 -43 55 -64 17 -22 37 -46 46 -54 8 -9 37 -43 65 -76 27 -33 54 -64
60 -70 5 -5 35 -39 65 -75 30 -36 59 -71 66 -78 7 -7 29 -34 50 -60 21 -25 47
-56 58 -67 11 -11 41 -45 65 -75 73 -90 146 -158 195 -180 42 -19 142 -35 190
-31 11 1 27 2 35 2 64 -2 123 0 129 3 4 3 13 1 19 -3 7 -4 33 -5 57 -1 25 4
45 4 45 1 0 -7 217 -4 236 3 7 3 15 2 18 -2 3 -4 32 -5 65 -2 34 3 61 3 61 0
0 -5 105 -4 268 3 34 1 62 0 62 -3 0 -3 26 -4 57 -2 32 1 74 2 93 2 19 -1 42
-1 50 -1 17 1 110 0 125 -1 53 -3 230 81 1475 703 1454 725 1579 790 1640 842
11 9 23 17 26 17 2 0 10 4 17 10 7 5 41 33 77 62 54 43 120 102 184 164 6 6
32 35 58 65 26 30 61 70 78 89 31 35 153 212 179 260 54 99 92 178 126 260 32
80 38 107 39 170 0 91 -7 127 -40 192 -24 48 -132 164 -142 153 -3 -3 -12 1
-21 9 -21 18 -81 37 -134 42 -39 4 -189 7 -212 4 -5 -1 -46 -1 -90 0 -118 1
-173 1 -182 -1 -4 -1 -12 -1 -18 1 -13 2 -136 -1 -207 -5 -64 -4 -120 -12
-204 -29 -39 -8 -149 -44 -199 -66 -57 -24 -297 -142 -305 -150 -3 -3 -120
-63 -260 -134 -140 -71 -324 -164 -408 -207 -136 -69 -157 -77 -180 -68 -15 6
-52 20 -82 31 -30 11 -64 23 -75 28 -11 4 -58 22 -105 40 -47 18 -94 36 -105
40 -11 4 -45 17 -75 28 -57 21 -210 78 -245 92 -11 4 -38 15 -60 23 -22 9 -90
34 -152 56 -61 22 -142 52 -180 67 -88 34 -214 81 -283 106 -30 11 -64 24 -75
28 -11 4 -58 22 -105 40 -47 18 -94 36 -105 40 -11 4 -45 17 -75 28 -30 11
-93 35 -140 52 -90 34 -100 37 -170 50 -46 9 -148 18 -153 14z"/>
<path d="M320 1278 c0 -3 -9 -4 -19 -1 -11 3 -48 -5 -83 -16 -77 -26 -144 -84
-184 -161 -26 -48 -29 -65 -28 -140 0 -68 5 -95 24 -134 30 -62 93 -125 155
-156 l50 -25 2945 -3 2944 -2 62 20 c74 25 147 90 184 165 21 42 25 64 24 135
0 100 -23 157 -88 224 -72 72 -143 95 -291 96 -27 0 -59 0 -70 0 -11 0 -36 0
-55 -1 -19 0 -42 0 -50 0 -63 2 -123 0 -131 -5 -5 -3 -9 -2 -9 3 0 7 -56 8
-220 3 -47 -1 -105 -1 -120 -1 -62 2 -102 1 -108 -3 -5 -3 -14 -1 -21 3 -7 5
-30 5 -52 1 -22 -4 -41 -4 -44 0 -2 4 -25 4 -50 0 -25 -4 -45 -4 -45 -1 0 3
-26 5 -57 3 -32 -1 -76 -2 -98 -1 -22 0 -46 0 -52 0 -25 -2 -44 -2 -98 -1 -30
1 -59 -1 -64 -4 -5 -4 -12 -2 -15 2 -3 5 -26 6 -51 2 -25 -4 -45 -4 -45 -1 0
3 -26 5 -57 3 -32 -1 -76 -2 -98 -1 -22 0 -46 0 -52 0 -25 -2 -44 -2 -98 -1
-30 1 -59 -1 -64 -4 -5 -4 -12 -2 -15 2 -3 5 -26 6 -51 2 -25 -4 -45 -4 -45
-1 0 3 -26 5 -57 3 -32 -1 -76 -2 -98 -1 -22 0 -46 0 -52 0 -25 -2 -44 -2 -98
-1 -30 1 -59 -1 -64 -4 -5 -4 -12 -2 -15 2 -3 5 -26 6 -51 2 -25 -4 -45 -4
-45 -1 0 3 -26 5 -57 3 -32 -1 -76 -2 -98 -1 -22 0 -46 0 -52 0 -25 -2 -44 -2
-98 -1 -30 1 -59 -1 -64 -4 -5 -4 -12 -2 -15 2 -3 5 -26 6 -51 2 -25 -4 -45
-4 -45 -1 0 3 -26 5 -57 3 -32 -1 -76 -2 -98 -1 -22 0 -46 0 -52 0 -25 -2 -44
-2 -98 -1 -30 1 -59 -1 -64 -4 -5 -4 -12 -2 -15 2 -3 5 -26 6 -51 2 -25 -4
-45 -4 -45 -1 0 3 -26 5 -57 3 -32 -1 -76 -2 -98 -1 -22 0 -46 0 -52 0 -25 -2
-44 -2 -98 -1 -30 1 -59 -1 -64 -4 -5 -4 -12 -2 -15 2 -3 5 -26 6 -51 2 -25
-4 -45 -4 -45 -1 0 3 -26 5 -57 3 -32 -1 -76 -2 -98 -1 -22 0 -46 0 -52 0 -25
-2 -44 -2 -98 -1 -30 1 -59 -1 -64 -4 -5 -4 -12 -2 -15 2 -3 5 -26 6 -51 2
-25 -4 -45 -4 -45 -1 0 3 -26 5 -57 3 -32 -1 -76 -2 -98 -1 -22 0 -46 0 -52 0
-25 -2 -44 -2 -98 -1 -30 1 -59 -1 -64 -4 -5 -4 -12 -2 -15 2 -3 5 -26 6 -51
2 -25 -4 -45 -4 -45 -1 0 3 -26 5 -57 3 -32 -1 -76 -2 -98 -1 -22 0 -46 0 -52
0 -25 -2 -44 -2 -98 -1 -30 1 -59 -1 -64 -4 -5 -4 -12 -2 -15 2 -3 5 -26 6
-51 2 -25 -4 -45 -4 -45 -1 0 3 -26 5 -57 3 -32 -1 -76 -2 -98 -2 -22 1 -46 1
-52 1 -59 -1 -86 -1 -136 1 -31 2 -57 0 -57 -4z"/>
</g>
</svg>
